/* XPM */
static char *hutao_small[] = {
/* columns rows colors chars-per-pixel */
"32 32 188 2 ",
"   c None",
".  c #150E12",
"X  c #1C1214",
"o  c #1A141C",
"O  c #2E110F",
"+  c #241414",
"@  c #23171B",
"#  c #26181B",
"$  c #291A1B",
"%  c #291415",
"&  c #311715",
"*  c #361A19",
"=  c #3C221C",
"-  c #1D192A",
";  c #251C23",
":  c #2D1D24",
">  c #241C29",
",  c #301E24",
"<  c #2D2128",
"1  c #322125",
"2  c #3A2529",
"3  c #38282A",
"4  c #232036",
"5  c #2B2436",
"6  c #352C3D",
"7  c #372B36",
"8  c #3C3137",
"9  c #461A15",
"0  c #5E1B15",
"q  c #6C1E17",
"w  c #5A261A",
"e  c #662B1E",
"r  c #7A221A",
"t  c #432B2E",
"y  c #5C2D26",
"u  c #442D32",
"i  c #4B2D33",
"p  c #433234",
"a  c #4B3236",
"s  c #4C3539",
"d  c #4B3C3D",
"f  c #463539",
"g  c #513439",
"h  c #533738",
"j  c #6E2E23",
"k  c #642B20",
"l  c #6F3A35",
"z  c #4D4039",
"x  c #53443C",
"c  c #58483E",
"v  c #664F39",
"b  c #3C3344",
"n  c #3A3248",
"m  c #313154",
"M  c #302D48",
"N  c #423644",
"B  c #4D3D40",
"V  c #473949",
"C  c #513F41",
"Z  c #583E45",
"A  c #443A53",
"S  c #493F5A",
"D  c #4E4143",
"F  c #4F424B",
"G  c #544445",
"H  c #5B4245",
"J  c #53444C",
"K  c #5F464A",
"L  c #5C4B4D",
"P  c #5A504C",
"I  c #4C425C",
"U  c #574A58",
"Y  c #634B4E",
"T  c #63454A",
"R  c #68534A",
"E  c #644E52",
"W  c #655456",
"Q  c #6A5356",
"!  c #6B5B53",
"~  c #6A5659",
"^  c #645A5A",
"/  c #6D5B5C",
"(  c #655359",
")  c #795155",
"_  c #725B5E",
"`  c #7C5A5E",
"'  c #6C615F",
"]  c #746351",
"[  c #77655A",
"{  c #4E4461",
"}  c #514765",
"|  c #564B6B",
" . c #584D6E",
".. c #534867",
"X. c #5D5170",
"o. c #745D60",
"O. c #685C78",
"+. c #746263",
"@. c #7A6366",
"#. c #7D6769",
"$. c #7F696B",
"%. c #776C6A",
"&. c #7B706E",
"*. c #756A76",
"=. c #6A6362",
"-. c #85241B",
";. c #8F3E2A",
":. c #913E2A",
">. c #A74E38",
",. c #815559",
"<. c #AF5743",
"1. c #B85B45",
"2. c #82725C",
"3. c #BA6754",
"4. c #826B6E",
"5. c #9A6B65",
"6. c #897961",
"7. c #90736F",
"8. c #846E71",
"9. c #897C7A",
"0. c #897577",
"q. c #AE746D",
"w. c #BB7B73",
"e. c #A36D66",
"r. c #C7705B",
"t. c #CC7C69",
"y. c #E66760",
"u. c #E56861",
"i. c #E3736D",
"p. c #E27670",
"a. c #8F8168",
"s. c #95876D",
"d. c #9D8E72",
"f. c #AE9E7E",
"g. c #A69678",
"h. c #B0A07F",
"j. c #C38077",
"k. c #DE827D",
"l. c #8E7F92",
"z. c #827484",
"x. c #948482",
"c. c #9B8684",
"v. c #968C88",
"b. c #998E8A",
"n. c #978786",
"m. c #9D918D",
"M. c #A7918E",
"N. c #A59592",
"B. c #A59995",
"V. c #AB9E9B",
"C. c #A99597",
"Z. c #B2A280",
"A. c #ABA19D",
"S. c #B3A39E",
"D. c #AFA4A0",
"F. c #B3A6A1",
"G. c #BAAAA6",
"H. c #BCB2AD",
"J. c #DE8682",
"K. c #DB908B",
"L. c #DE9D9B",
"P. c #E18985",
"I. c #DEA19F",
"U. c #C2ABAC",
"Y. c #DDADAD",
"T. c #C6B3AD",
"R. c #CBB4B5",
"E. c #C9BCB6",
"W. c #CDBCB9",
"Q. c #C5B6B5",
"!. c #D3BCBC",
"~. c #DAB5B5",
"^. c #D2C4BE",
"/. c #DBBFC1",
"(. c #D4BFC0",
"). c #D6C2C4",
"_. c #DAC7CA",
"`. c #DAC7C5",
"'. c #DFD2CB",
"]. c #E2D4CE",
"[. c #E7D9D2",
"{. c #EADCD5",
"}. c #E6D7D1",
"|. c #F3D5CD",
" X c #EFE1DA",
".X c #F4E5DD",
"XX c #F6E7E0",
"oX c #F6E8E0",
/* pixels */
"                         . . . . . . . .                        ",
"                   . ...^ I .. . . . . . . . .                  ",
"              |  . .U d.f.h.a.P < 5 6 b I I | l <.              ",
"             . . .I s.Z.] 6.2.h.: : : : $ >.l B = t             ",
"          l.X.| b ! Z.f.2.6.] Z.1 : : : ;.t.t.w p A }           ",
"        _._.Q.J : x Z.] c 6.x h.3 : : : * 1.>.j N 8  .|         ",
"      _._._.!.R.f : s.f.2.3 g.Z.p : : : & 9 % e * V Z f |       ",
"    _._._.!.!.!.c.: z Z.Z.R f.Z.d : : : * & & 1.3.y < M ..|     ",
"    _._.(.!.!.!.R.3 : a.Z.d.[ x < # # # # # e r.t.j n 5 A  .    ",
"  k.p.~.!.!.!.!.!.B : 3 p : : : : : : : : : > k :., A - }  . .  ",
"  _./.!.!.!.!.!.!.d # : : : : : : , 1 1 1 : 4 X - . > 6  . . .  ",
"  L.~.).!.p.J.!.!.p : : : : 2 s s Q _ _ K +.~ b 4 o # ; |  . .  ",
"/.u.u.P.!.!.k.K.U.: : d s Q +.$./ $.4.$.K Q 8.8.W M > I  . .n | ",
"_.i.y.y.J.!.!.!.8.: i V.x.$.4.8.@.m.+.$.~ u $.$.~ m F ~ U ( J  .",
"_.Y.i.i.I.!.!.U.u H _ ].W.@.0.o.$.~ ^.N.+.&.W $.+.b ~ $.$.#.V  .",
"_._._._.).!.U.H Q o.$.^.E.9.$.Q d 9.v..X}.`.x.$.$.Q _ @.~ N ..F ",
"_._._._.!.R.E ~ 0.~ x.oXoX.XN._ H Q..XB./ K H $.$.K 2 , @ 5 ; v ",
"_._._._.!.8.#./ 0._ N.oXoX XoX].F.Q.W.^ T.].v./ $.C a ~ : : : 7 ",
"_._._._.!.R.c._ $.@.H..XN.+.B.oXoXoX}..XoX.XT./ @.G a H L 6 A | ",
"_._._._.z.C.`.U.$.$.M.R %.F.F..XoX.XoXoXoX.Xm.~ d #.G i T L {  .",
"  _._.W.~ 4.4.~ $.$.Y s.oXoXoXoXoX{.F.F.oXoXv.x.o.$.L i i Q J   ",
"  _.).G.$.$._ p $.Q $.c.|..XoX}.5.q.w.5..XoXoX%.+.$.W u i i _   ",
"  _._.0.D u : f G Y d ~ 0.^.oX{.e.j.j.5.{.oXG.1 / $.+.B.n.s g   ",
"    ).*.n : # E 2 L 3 L E..XoXoXc.w.w.7.oXV.b 2 Q +.=.H.{.B.    ",
"    ^.[ 1 : @ Y u ~ +.@.^ ^.oXoX.XG.S.H.W n } 8 Y _ N.H.A.D.    ",
"      N.7 b V Z i d $.$.E 2 J *.*.~ b.7.r + X L H _ ' 9.m.      ",
"        O. .J h i t W $.$.d 8 { @ r j y r + $ 1 g ,.# V.        ",
"           .L g i W F.L @.@.J o $ 9 q q 0 @ $ @ ) ,.2           ",
"            E g C .X}.v.$.` Q @ # # O -.9 $ $ # 1 $             ",
"              a +.oX^.V.W T ) Z # $ # + + $ $ $ X               ",
"                  F.x.h D g t a # $ # . + $ $                   ",
"                        G X < # X $ # @                         "
};
